<svg id="Layer_1" data-name="Layer 1" xmlns="http://www.w3.org/2000/svg" xmlns:xlink="http://www.w3.org/1999/xlink" viewBox="0 0 842.79 203.34"><defs><style>.cls-1{fill:#444f59;}.cls-2{fill:url(#linear-gradient);}.cls-3{opacity:0.15;}</style><linearGradient id="linear-gradient" x1="188.44" y1="87.46" x2="30.66" y2="193.7" gradientTransform="matrix(1, 0.08, -0.08, 1, 9.69, -20.29)" gradientUnits="userSpaceOnUse"><stop offset="0" stop-color="#ec008c"/><stop offset="1" stop-color="#2b328c"/></linearGradient></defs><title>Code Crow-4</title><path class="cls-1" d="M251.64,52.15a68.52,68.52,0,0,1,.94,9.84c0,1.78-.06,3.55-.16,5.31a36.25,36.25,0,0,1-.63,5l-47.18,25.2,47.18,24.26a35.9,35.9,0,0,1,.63,4.92c.1,1.72.16,3.47.16,5.24,0,1.46-.06,3.12-.16,5a44.16,44.16,0,0,1-.78,5.93L187,109.07a55.91,55.91,0,0,1-1.4-12.19A46,46,0,0,1,187,85.79Z"/><path class="cls-1" d="M298.63,139.77a42.23,42.23,0,0,1-17.11-3.2,32.6,32.6,0,0,1-12-8.91,38.83,38.83,0,0,1-7.19-13.36,54.74,54.74,0,0,1-2.42-16.56A56.32,56.32,0,0,1,262.3,81a38.73,38.73,0,0,1,7.19-13.51,33.34,33.34,0,0,1,12-9,41.39,41.39,0,0,1,17.11-3.28,42,42,0,0,1,17.19,3.28,33.9,33.9,0,0,1,12.18,9A37,37,0,0,1,335.19,81a58,58,0,0,1,2.34,16.72,56.36,56.36,0,0,1-2.34,16.56A37.07,37.07,0,0,1,328,127.66a33.15,33.15,0,0,1-12.18,8.91A42.83,42.83,0,0,1,298.63,139.77Zm0-16.87q8.75,0,12.58-6.49T315,97.74q0-12.18-3.82-18.67t-12.58-6.49q-8.6,0-12.42,6.49t-3.83,18.67q0,12.18,3.83,18.67T298.63,122.9Z"/><path class="cls-1" d="M397.22,23.68a51,51,0,0,1,5.54-.62c1.82-.11,3.62-.16,5.4-.16s3.59.05,5.46.16a51.27,51.27,0,0,1,5.63.62V135.24a112.09,112.09,0,0,1-14.92,3.36A122.74,122.74,0,0,1,386,139.77a55,55,0,0,1-15.86-2.27,36.3,36.3,0,0,1-13.36-7.18,34.11,34.11,0,0,1-9.14-12.74q-3.36-7.8-3.36-19.06a48.42,48.42,0,0,1,2.89-16.8,40.18,40.18,0,0,1,8.28-13.67,39.27,39.27,0,0,1,13.05-9.14,42.08,42.08,0,0,1,17-3.36c1.87,0,3.83.08,5.86.24a30.29,30.29,0,0,1,5.86,1Zm0,50.16a42.57,42.57,0,0,0-5.08-1,41.52,41.52,0,0,0-4.92-.24,18.43,18.43,0,0,0-9,2.11,18.8,18.8,0,0,0-6.32,5.63,24.08,24.08,0,0,0-3.68,8.28,41.45,41.45,0,0,0-1.17,9.92,32.79,32.79,0,0,0,1.57,10.86,17.92,17.92,0,0,0,4.29,7.11,16,16,0,0,0,6.49,3.83,27.06,27.06,0,0,0,8.12,1.17,47.49,47.49,0,0,0,4.84-.23,28.54,28.54,0,0,0,4.85-1Z"/><path class="cls-1" d="M452.06,104.3q.62,9.38,6.56,13.6t15.62,4.21a59.82,59.82,0,0,0,10.86-1,61.71,61.71,0,0,0,10.55-2.89,36.84,36.84,0,0,1,3,7.5,38.84,38.84,0,0,1,1.41,9.37,76.08,76.08,0,0,1-27.5,4.69q-11.25,0-19.3-3.13A34.2,34.2,0,0,1,440.1,128a34.68,34.68,0,0,1-7.49-13.2,57.9,57.9,0,0,1,.07-33.43,39.21,39.21,0,0,1,7.42-13.6,35.3,35.3,0,0,1,12.19-9.14,40.07,40.07,0,0,1,17-3.36,36,36,0,0,1,15,3,33.1,33.1,0,0,1,11.18,8.13,34.14,34.14,0,0,1,6.95,12.26,48.44,48.44,0,0,1,2.34,15.23c0,2-.08,3.94-.23,5.86s-.34,3.47-.55,4.61Zm31.72-15.47q-.31-7.48-4.15-12.1t-10.7-4.61q-7.81,0-11.87,4.37t-4.84,12.34Z"/><path class="cls-1" d="M571,124a25.26,25.26,0,0,1,2.19,5.47,29.29,29.29,0,0,1,1.09,6.72,57.91,57.91,0,0,1-21.09,3.59q-20,0-30.16-11.33T512.84,97.9a52.92,52.92,0,0,1,2.5-16.56,37.55,37.55,0,0,1,7.42-13.29A35,35,0,0,1,535,59.15a41.36,41.36,0,0,1,17-3.28,75.92,75.92,0,0,1,11.57.78,47.33,47.33,0,0,1,9.53,2.5,31.9,31.9,0,0,1-.71,6.17,26.64,26.64,0,0,1-2,6.17A53.28,53.28,0,0,0,553,68.84q-12,0-18,8t-5.93,21.1q0,15,6.72,21.95t18.43,7a56.82,56.82,0,0,0,8.67-.62A39.74,39.74,0,0,0,571,124Z"/><path class="cls-1" d="M586,57.74c1.14-.2,2.24-.36,3.28-.47s2.13-.15,3.28-.15,2.29.05,3.44.15a27.9,27.9,0,0,1,3.12.47c.31,1.56.63,3.62.94,6.17a55.54,55.54,0,0,1,.47,6.49,32.38,32.38,0,0,1,8.67-9.22q5.39-3.9,13.83-3.91c.83,0,1.69,0,2.58.08a22.49,22.49,0,0,1,2.26.24,25.65,25.65,0,0,1,.47,3c.1,1,.16,2.13.16,3.27a33.19,33.19,0,0,1-.24,3.91c-.16,1.36-.34,2.66-.55,3.91a10.45,10.45,0,0,0-2.57-.31H623a27.4,27.4,0,0,0-8,1.17,16.78,16.78,0,0,0-6.87,4.14,20.55,20.55,0,0,0-4.85,8.12,41.07,41.07,0,0,0-1.79,13.28V137.9a38.36,38.36,0,0,1-3.83.46c-1.41.11-2.69.16-3.83.16s-2.42-.05-3.83-.16-2.73-.26-4-.46Z"/><path class="cls-1" d="M668,139.77a39.35,39.35,0,0,1-16.41-3.2,32.68,32.68,0,0,1-11.72-8.83,36.85,36.85,0,0,1-7-13.28,61.54,61.54,0,0,1,0-33.12,36.82,36.82,0,0,1,7-13.29,33.43,33.43,0,0,1,11.72-8.9,42.67,42.67,0,0,1,32.81,0,33.43,33.43,0,0,1,11.72,8.9,36.82,36.82,0,0,1,6.95,13.29,61.54,61.54,0,0,1,0,33.12,36.85,36.85,0,0,1-6.95,13.28,32.68,32.68,0,0,1-11.72,8.83A39.3,39.3,0,0,1,668,139.77Zm0-12.34q10.77,0,15.93-7.82t5.16-21.71q0-13.91-5.16-21.64T668,68.52q-10.79,0-15.86,7.74T647.05,97.9q0,13.91,5.08,21.71T668,127.43Z"/><path class="cls-1" d="M708,57.74c1.46-.2,2.92-.36,4.38-.47s2.76-.15,3.9-.15c1.46,0,3,.05,4.46.15s2.83.27,4,.47l15.62,65.47L758,57.74c1.15-.2,2.39-.36,3.75-.47s2.76-.15,4.22-.15c1.66.1,3.1.18,4.3.23a29,29,0,0,1,3.51.39l17.5,64.37,15.62-64.37c1.15-.2,2.29-.36,3.44-.47s2.4-.15,3.75-.15c1.15,0,2.42.05,3.83.15s2.84.27,4.3.47L798.29,137.9c-1.35.2-2.73.36-4.14.46s-2.68.16-3.83.16-2.39-.05-3.75-.16-2.71-.26-4.06-.46L765.32,77.27l-18,60.63c-1.46.2-2.89.36-4.3.46s-2.68.16-3.83.16-2.42-.05-3.83-.16a37.79,37.79,0,0,1-3.82-.46Z"/><path class="cls-2" d="M134.72,30.87C80.79,29,67.18,62.07,64,74a1,1,0,0,0,1.7.85c7.11-9.17,15.56-11.69,25.08-9.61L102.32,97a11.64,11.64,0,0,0-7.65,10c0,.19,0,.37,0,.55L56.07,110.1A6,6,0,0,0,51.79,106l.74-50.69A6.19,6.19,0,0,0,57,46.83L95.55,20l.21.13a6.64,6.64,0,0,0,4.11,1.09c20.93-1.56,31.25,2.21,36.19,5.54A2.23,2.23,0,0,1,134.72,30.87Zm21.82,84.06c-23.25-22.74-44.55-43-62.36-48.74l11,30.18a11.52,11.52,0,0,1,12.76,12.44l38.29,6.81A.41.41,0,0,0,156.54,114.93ZM24.68,62.87a2,2,0,0,0-.91,2.88l23.79,40.7,1.36-.35.75-50.88A6.2,6.2,0,0,1,46.24,53Zm26.7-20L59,14.57C42.4,20.37,29,37.18,23.43,58.21A1.17,1.17,0,0,0,25,59.56l20-9.18a6.12,6.12,0,0,1-.13-1.77A6.27,6.27,0,0,1,51.38,42.88Zm179.5,135.58c-23.4-14.06-46.43-36.23-68-57.28a.39.39,0,0,0-.66.38l8.12,33.94h.13a8,8,0,0,1,7.29,8.64c0,.12-.05.23-.06.35l52.6,15.19A.67.67,0,0,0,230.88,178.46Zm-175.5-134L92.88,18.4c-10.6-6.08-21.1-7.28-30.67-4.82l-8.05,30A6.32,6.32,0,0,1,55.38,44.48Zm110.69,126-11.59,10.8c25,6.69,56.61,10.88,96.36,9.3a1,1,0,0,0,.24-2l-74.19-21.42a8,8,0,0,1-7.73,4.21A8.1,8.1,0,0,1,166.07,170.52ZM62.83,155.88l-13-38.21a5.93,5.93,0,0,1-4.4-9.24L22.79,69.75a.88.88,0,0,0-1.62.32C17.84,98.59,28.55,131.92,62.83,155.88Zm59.51,25c.36,0,.17-.68-.16-.83-4.53-2.21-36.52-18.52-48.56-45.23a77.44,77.44,0,0,0,17.19,16.64l10.59-33a11.62,11.62,0,0,1-6.46-8.11L56.16,113a6,6,0,0,1-3.5,4.24l14.1,41.32C69.2,160.1,90.09,180.13,122.34,180.89ZM93.21,153.25c11.74,8.6,29.34,18.55,54.32,26.09L111,118.56a11.52,11.52,0,0,1-5.68,1,9.28,9.28,0,0,1-1.17-.22Zm20.25-36.15,38,63.15,12.39-11.54a8,8,0,0,1,3.71-12.88l-8.45-35.29a2.47,2.47,0,0,0-2-1.85l-39.78-7.07A11.62,11.62,0,0,1,113.46,117.1Z"/><g class="cls-3"><path d="M105.14,96.37l.52-24.76a59.6,59.6,0,0,0-11.48-5.42Z"/><path d="M47.56,106.45h0L30.28,60.31l-5.6,2.56a2,2,0,0,0-.91,2.88Z"/><path d="M62.21,13.58l-8.05,30c.1.06.19.14.29.21L71.6,12.54A37.67,37.67,0,0,0,62.21,13.58Z"/><path d="M57,46.83a6.17,6.17,0,0,1,.14.86L113.62,21a112.84,112.84,0,0,0-13.75.26,6.71,6.71,0,0,1-4.11-1.09L95.55,20Z"/><path d="M94.94,110.38,56.16,113a6,6,0,0,1-3.5,4.24l2.5,7.33,40-13.62C95.08,110.73,95,110.56,94.94,110.38Z"/><path d="M56.07,110.1l9-.6L52.53,55.26,51.79,106A6,6,0,0,1,56.07,110.1Z"/><path d="M23.43,58.21A1.17,1.17,0,0,0,25,59.56l20-9.18c0-.17,0-.34,0-.51L26.4,49.35A81.48,81.48,0,0,0,23.43,58.21Z"/><path d="M170.51,155.5c.16,0,.28.11.44.13L176.2,134c-4.48-4.28-8.92-8.59-13.28-12.85a.39.39,0,0,0-.66.38l8.12,33.94Z"/><polygon points="159.25 172.97 113.46 117.1 151.42 180.25 159.25 172.97"/><path d="M44.44,139.57,21.28,70c0,.06-.1.05-.11.11C18.54,92.59,24.88,118,44.44,139.57Z"/><path d="M176.89,167.23a8,8,0,0,1-7.73,4.21,8.1,8.1,0,0,1-3.09-.92l-.8.75,62.07,10.52Z"/><path d="M104.14,119.34,93.21,153.25c2.64,1.93,5.61,3.93,8.85,5.95l2.31-39.81Z"/><path d="M75.17,138C79,145.5,90,165,106.76,179a79.8,79.8,0,0,0,15.58,1.92h0a.6.6,0,0,0,0-.64.54.54,0,0,0-.21-.19h0c-.57-.28-1.56-.78-2.89-1.49-1-.53-2.19-1.18-3.53-1.95s-2.83-1.65-4.43-2.65c-.72-.45-1.47-.93-2.23-1.43-.93-.6-1.88-1.23-2.86-1.91-.6-.4-1.2-.82-1.81-1.26C94.25,162.14,82.25,151.5,75.17,138Z"/><polygon points="73.62 134.83 73.62 134.84 73.62 134.84 73.62 134.83"/><path d="M73.63,134.85c0,.06.28.61.76,1.59C74.14,135.92,73.87,135.39,73.63,134.85Z"/></g></svg>